<?xml version="1.0" standalone="no"?>
<!DOCTYPE svg PUBLIC "-//W3C//DTD SVG 20010904//EN"
 "http://www.w3.org/TR/2001/REC-SVG-20010904/DTD/svg10.dtd">
<svg version="1.0" xmlns="http://www.w3.org/2000/svg"
 width="1280.000000pt" height="1280.000000pt" viewBox="0 0 1280.000000 1280.000000"
 preserveAspectRatio="xMidYMid meet">
<metadata>
Created by potrace 1.15, written by Peter Selinger 2001-2017
</metadata>
<g transform="translate(0.000000,1280.000000) scale(0.100000,-0.100000)"
fill="#ffffff" stroke="none">
<path d="M5020 9885 l-1515 -1515 -1532 0 -1533 0 0 -495 0 -495 -190 0 -190
0 0 -805 0 -805 200 0 200 0 0 -570 0 -570 1497 0 1498 0 1542 -1542 1543
-1543 0 2120 0 2121 30 17 c48 29 163 147 210 216 154 230 210 534 146 804
-54 226 -155 393 -317 524 l-69 55 -2 1999 -3 1999 -1515 -1515z"/>
</g>
</svg>
